# xmcd
#
# Track frame offsets:
#	150
#	16550
#	32848
#	51338
#	71838
#	90261
#	105388
#	124771
#	144162
#	157715
#	175405
#	192403
#	212062
#	228751
#
# Disc length: 3301 seconds
#
# Revision: 1
# Processed by: cddbd v1.5.2PL0 Copyright (c) Steve Scherf et al.
# Submitted via: audiograbber 1.83.01
#
DISCID=ab0ce30e
DTITLE=compilation - SD152
DYEAR=2007
DGENRE=Karaoke
TTITLE0=Rascal Flatts - Stand 
TTITLE1=Kenny Chesney - Beer In Mexico 
TTITLE2=Tim Mcgraw - Last Dollar (Fly Away) 
TTITLE3=Alan Jackson - A Womans Love 
TTITLE4=Lonestar - Nothing To Prove 
TTITLE5=Eric Church - Guys Like Me 
TTITLE6=Emerson Drive - Moments 
TTITLE7=Luke Bryan - All My Friends Say 
TTITLE8=Toby Keith - Jack Don Tucker (Play By The Rules....) 
TTITLE9=Catherine Britt - What I Did Last Night 
TTITLE10=John Mellencamp - Our Country 
TTITLE11=Joan Osborne - Who Divided 
TTITLE12=Bucky Covington - A Different World 
TTITLE13=J. L. Lewis  w/  B. Springsteen - Pink Cadillac 
EXTD=
EXTT0=
EXTT1=
EXTT2=
EXTT3=
EXTT4=
EXTT5=
EXTT6=
EXTT7=
EXTT8=
EXTT9=
EXTT10=
EXTT11=
EXTT12=
EXTT13=
PLAYORDER=
